# xmcd
#
# Track frame offsets:
#	150
#	11595
#	29449
#	44346
#	59824
#	74275
#	89567
#	105378
#	117501
#	133714
#	145519
#	161811
#	173002
#	189324
#	202782
#	225791
#	241261
#	254160
#	266083
#	281074
#	297237
#
# Disc length: 4136 seconds
#
# Revision: 0
# Processed by: cddbd v1.5.2PL0 Copyright (c) Steve Scherf et al.
# Submitted via: EZCDAudioConverter 7.1.0.1
#
DISCID=34102615
DTITLE=Nu Urban Traxx Volume 256 US
DYEAR=2018
DGENRE=blues
TTITLE0=Travis Scott - Yosemite
TTITLE1=Nicki Minaj ft. Lil Wayne - Good Form
TTITLE2=XXXTENTACION x Lil Pump ft. Swae Lee and Maluma - Arms Around You
TTITLE3=Drake - Mob Ties
TTITLE4=Meek Mill - Uptown Vibes
TTITLE5=Ella Mai - Shot Clock
TTITLE6=Jordan Hollywood ft. Lil Baby - Let Me Find Out
TTITLE7=Moneybagg Yo ft. J. Cole - Say Na
TTITLE8=Coi Leray - Huddy
TTITLE9=Jonn Hart and Too $hort - Whistle
TTITLE10=Sada Baby and Drego - Bloxk Party
TTITLE11=Derez De'Shon ft. Mozzy - Whaddup Doe
TTITLE12=Trippie Redd - Topanga
TTITLE13=Maxwell - Shame
TTITLE14=Travis Scott and Skrillex - Sicko Mode [Skrillex Remix]
TTITLE15=Lloyd - Caramel
TTITLE16=Tee Grizzley ft. Offset - Pray For The Drip
TTITLE17=Post Malone and Swae Lee - Sunflower
TTITLE18=Solo Lucci - Cash Money
TTITLE19=Ro James - Excuse Me
TTITLE20=Stefflon Don ft. Tory Lanez - Senseless [Remix]
EXTD=
EXTT0=
EXTT1=
EXTT2=
EXTT3=
EXTT4=
EXTT5=
EXTT6=
EXTT7=
EXTT8=
EXTT9=
EXTT10=
EXTT11=
EXTT12=
EXTT13=
EXTT14=
EXTT15=
EXTT16=
EXTT17=
EXTT18=
EXTT19=
EXTT20=
PLAYORDER=
